<svg width="6" height="11" viewBox="0 0 6 11" fill="none" xmlns="http://www.w3.org/2000/svg">
<path fill-rule="evenodd" clip-rule="evenodd" d="M4.14941 7.99072V-0.00927734H5.64941V7.99072C5.64941 8.72007 5.35968 9.41954 4.84396 9.93527C4.32823 10.451 3.62876 10.7407 2.89941 10.7407C2.17007 10.7407 1.4706 10.451 0.95487 9.93527C0.439145 9.41954 0.149414 8.72007 0.149414 7.99072V6.99072C0.149414 6.79181 0.228432 6.60104 0.369084 6.46039C0.509736 6.31974 0.700502 6.24072 0.899414 6.24072C1.09833 6.24072 1.28909 6.31974 1.42974 6.46039C1.5704 6.60104 1.64941 6.79181 1.64941 6.99072V7.99072C1.64941 8.32224 1.78111 8.64019 2.01553 8.87461C2.24995 9.10903 2.56789 9.24072 2.89941 9.24072C3.23093 9.24072 3.54888 9.10903 3.7833 8.87461C4.01772 8.64019 4.14941 8.32224 4.14941 7.99072Z" fill="url(#paint0_linear_3443_12539)"/>
<path fill-rule="evenodd" clip-rule="evenodd" d="M4.14941 7.99072V-0.00927734H5.64941V7.99072C5.64941 8.72007 5.35968 9.41954 4.84396 9.93527C4.32823 10.451 3.62876 10.7407 2.89941 10.7407C2.17007 10.7407 1.4706 10.451 0.95487 9.93527C0.439145 9.41954 0.149414 8.72007 0.149414 7.99072V6.99072C0.149414 6.79181 0.228432 6.60104 0.369084 6.46039C0.509736 6.31974 0.700502 6.24072 0.899414 6.24072C1.09833 6.24072 1.28909 6.31974 1.42974 6.46039C1.5704 6.60104 1.64941 6.79181 1.64941 6.99072V7.99072C1.64941 8.32224 1.78111 8.64019 2.01553 8.87461C2.24995 9.10903 2.56789 9.24072 2.89941 9.24072C3.23093 9.24072 3.54888 9.10903 3.7833 8.87461C4.01772 8.64019 4.14941 8.32224 4.14941 7.99072Z" fill="white" fill-opacity="0.17"/>
<defs>
<linearGradient id="paint0_linear_3443_12539" x1="5.64941" y1="-0.00927879" x2="-0.136273" y2="0.154203" gradientUnits="userSpaceOnUse">
<stop stop-color="#FFA600"/>
<stop offset="0.234764" stop-color="#FF9407"/>
<stop offset="0.538685" stop-color="#FF7D11"/>
<stop offset="0.799781" stop-color="#FF6A19"/>
<stop offset="1" stop-color="#FF5B1F"/>
</linearGradient>
</defs>
</svg>
