<svg width="25" height="25" viewBox="0 0 25 25" fill="none" xmlns="http://www.w3.org/2000/svg">
<path fill-rule="evenodd" clip-rule="evenodd" d="M4.93605 7C5.30305 6.888 5.78805 6.778 6.38205 6.68C7.95905 6.416 10.166 6.25 12.623 6.25C12.822 6.25 13.0127 6.17098 13.1534 6.03033C13.294 5.88968 13.373 5.69891 13.373 5.5C13.373 5.30109 13.294 5.11032 13.1534 4.96967C13.0127 4.82902 12.822 4.75 12.623 4.75C10.11 4.75 7.81605 4.92 6.13605 5.2C5.30105 5.339 4.58305 5.51 4.05605 5.718C3.79605 5.821 3.53805 5.948 3.33205 6.116C3.13605 6.276 2.87305 6.569 2.87305 7C2.87305 7.431 3.13605 7.724 3.33305 7.884C3.53805 8.051 3.79505 8.179 4.05505 8.282C4.58305 8.489 5.30105 8.662 6.13505 8.8C7.81605 9.08 10.11 9.25 12.623 9.25C15.137 9.25 17.43 9.08 19.11 8.8C19.945 8.661 20.663 8.49 21.19 8.282C21.45 8.179 21.708 8.052 21.914 7.884C22.11 7.724 22.373 7.431 22.373 7C22.373 6.465 21.976 6.143 21.743 5.993C21.473 5.818 21.123 5.68 20.746 5.565C19.984 5.332 18.932 5.144 17.706 5.007C17.5083 4.98499 17.31 5.04242 17.1546 5.16666C16.9992 5.29091 16.8996 5.47178 16.8775 5.6695C16.8555 5.86722 16.913 6.06558 17.0372 6.22096C17.1615 6.37633 17.3423 6.47599 17.54 6.498C18.726 6.63 19.674 6.806 20.308 7H20.31C19.8353 7.13717 19.3523 7.24406 18.864 7.32C17.287 7.584 15.08 7.75 12.623 7.75C10.166 7.75 7.95905 7.584 6.38305 7.32C5.89434 7.24454 5.411 7.13765 4.93605 7ZM20.981 7.291C20.9762 7.28797 20.9718 7.28427 20.968 7.28L20.981 7.291Z" fill="url(#paint0_linear_3443_11001)"/>
<path opacity="0.5" fill-rule="evenodd" clip-rule="evenodd" d="M21.3287 10.2466C21.3621 10.3394 21.3768 10.4378 21.3721 10.5363C21.3674 10.6348 21.3433 10.7314 21.3012 10.8205C21.2592 10.9097 21.1999 10.9897 21.1269 11.0559C21.0539 11.1222 20.9685 11.1734 20.8757 11.2066H20.8737L20.8707 11.2076L20.8607 11.2106L20.8287 11.2216C20.6524 11.2789 20.4747 11.3315 20.2957 11.3796C19.9287 11.4796 19.3877 11.6096 18.6757 11.7376C17.2487 11.9956 15.1357 12.2496 12.3467 12.2496C9.55868 12.2496 7.57868 11.9956 6.28068 11.7356C5.79146 11.6401 5.30776 11.5183 4.83168 11.3706C4.67342 11.3209 4.51699 11.2655 4.36268 11.2046L4.33268 11.1916L4.32268 11.1876L4.31968 11.1856C4.31968 11.1856 4.31668 11.1846 4.62268 10.4996L4.31668 11.1846C4.13487 11.1039 3.9926 10.9542 3.92115 10.7685C3.84969 10.5829 3.85492 10.3764 3.93568 10.1946C4.01644 10.0128 4.16611 9.87053 4.35177 9.79907C4.53743 9.72762 4.74387 9.73285 4.92568 9.81361M4.92568 9.81361L4.93568 9.81761L4.99568 9.84161C5.05568 9.86361 5.15068 9.89861 5.28568 9.94161C5.55468 10.0266 5.97868 10.1446 6.57568 10.2646C7.76868 10.5046 9.65068 10.7496 12.3467 10.7496C15.0437 10.7496 17.0677 10.5036 18.4087 10.2616C19.0787 10.1406 19.5787 10.0206 19.9057 9.93161C20.0551 9.89164 20.2035 9.84796 20.3507 9.80061L20.3707 9.79361C20.4635 9.76024 20.5609 9.74549 20.6594 9.7502C20.7579 9.75491 20.8544 9.77899 20.9436 9.82106C21.0328 9.86314 21.1128 9.92238 21.179 9.9954C21.2453 10.0684 21.2965 10.1538 21.3297 10.2466M8.89568 15.8016C8.71195 15.7346 8.50929 15.7419 8.33091 15.8221C8.15254 15.9024 8.01256 16.0491 7.94082 16.2311C7.86908 16.413 7.87126 16.6158 7.94689 16.7962C8.02252 16.9765 8.16562 17.1202 8.34568 17.1966L8.34768 17.1976L8.35068 17.1986L8.35768 17.2016L8.37768 17.2086C8.46789 17.2429 8.55966 17.2729 8.65268 17.2986C8.83568 17.3516 9.10268 17.4196 9.45468 17.4866C10.1587 17.6206 11.2057 17.7496 12.6227 17.7496C14.0397 17.7496 15.0867 17.6206 15.7917 17.4866C16.0619 17.4364 16.3295 17.3733 16.5937 17.2976C16.6862 17.2708 16.7779 17.2411 16.8687 17.2086L16.8887 17.2016L16.8947 17.1986L16.8977 17.1976L16.6227 16.4996L16.8997 17.1966C17.0797 17.1202 17.2228 16.9765 17.2985 16.7962C17.3741 16.6158 17.3763 16.413 17.3045 16.2311C17.2328 16.0491 17.0928 15.9024 16.9144 15.8221C16.7361 15.7419 16.5334 15.7346 16.3497 15.8016H16.3477M16.3477 15.8016L16.3197 15.8116C16.2907 15.8216 16.2427 15.8376 16.1737 15.8576C15.9556 15.9196 15.7346 15.9713 15.5117 16.0126C14.9017 16.1286 13.9487 16.2496 12.6227 16.2496C11.2977 16.2496 10.3447 16.1296 9.73468 16.0126C9.4617 15.9616 9.19191 15.8949 8.92668 15.8126C8.91731 15.8094 8.90798 15.806 8.89868 15.8026" fill="url(#paint1_linear_3443_11001)"/>
<path fill-rule="evenodd" clip-rule="evenodd" d="M17.3331 18.7579C17.3974 18.9461 17.3843 19.1521 17.2967 19.3306C17.2091 19.5091 17.0542 19.6455 16.8661 19.7099C15.8251 20.0784 14.7274 20.2612 13.6231 20.2499C12.2261 20.2499 11.1891 20.1249 10.4851 19.9929C10.3883 19.9748 10.2959 19.9378 10.2134 19.884C10.1308 19.8301 10.0597 19.7606 10.004 19.6793C9.94837 19.598 9.90926 19.5066 9.88894 19.4101C9.86862 19.3137 9.86749 19.2143 9.88561 19.1174C9.90373 19.0206 9.94075 18.9282 9.99456 18.8457C10.0484 18.7631 10.1179 18.692 10.1992 18.6363C10.2805 18.5807 10.372 18.5416 10.4684 18.5212C10.5648 18.5009 10.6643 18.4998 10.7611 18.5179C11.3721 18.6329 12.3171 18.7499 13.6231 18.7499C14.5624 18.7609 15.4962 18.6052 16.3811 18.2899C16.4743 18.2581 16.5729 18.245 16.6712 18.2513C16.7695 18.2576 16.8656 18.2832 16.9541 18.3267C17.0425 18.3702 17.1214 18.4306 17.1865 18.5046C17.2515 18.5786 17.3013 18.6647 17.3331 18.7579ZM7.21411 13.0379C7.0994 12.8898 6.93339 12.7899 6.74876 12.758C6.56413 12.7261 6.37425 12.7645 6.21649 12.8656C6.05873 12.9666 5.94451 13.1231 5.89633 13.3042C5.84814 13.4852 5.86946 13.6778 5.95611 13.8439L6.62311 13.4999C5.95611 13.8439 5.95711 13.8449 5.95711 13.8449L5.95811 13.8469L5.96011 13.8509L5.96411 13.8589L5.97311 13.8739C5.99262 13.9079 6.01433 13.9407 6.03811 13.9719C6.07311 14.0179 6.11511 14.0659 6.16611 14.1139C6.26811 14.2109 6.40311 14.3109 6.58411 14.4089C6.94111 14.6029 7.49911 14.8029 8.38411 14.9589C8.57654 14.9861 8.77202 14.9376 8.92937 14.8235C9.08672 14.7094 9.19364 14.5387 9.22761 14.3474C9.26157 14.156 9.21993 13.959 9.11146 13.7977C9.00299 13.6364 8.83615 13.5236 8.64611 13.4829C7.85911 13.3429 7.47011 13.1829 7.30011 13.0909C7.27036 13.0751 7.24164 13.0574 7.21411 13.0379ZM18.9671 12.8339C19.1438 12.925 19.2771 13.0826 19.3377 13.272C19.3983 13.4614 19.3812 13.6671 19.2901 13.8439L18.6231 13.4999C19.2901 13.8439 19.2891 13.8449 19.2881 13.8469L19.2871 13.8489L19.2841 13.8549L19.2771 13.8669C19.2632 13.8924 19.2478 13.9171 19.2311 13.9409C19.2071 13.9749 19.1791 14.0109 19.1461 14.0469C19.0682 14.1312 18.981 14.2063 18.8861 14.2709C18.6731 14.4209 18.3611 14.5759 17.9001 14.7169C16.9841 14.9979 15.4001 15.2499 12.6231 15.2499C12.4242 15.2499 12.2334 15.1709 12.0928 15.0302C11.9521 14.8896 11.8731 14.6988 11.8731 14.4999C11.8731 14.301 11.9521 14.1102 12.0928 13.9696C12.2334 13.8289 12.4242 13.7499 12.6231 13.7499C15.3301 13.7499 16.7471 13.5019 17.4601 13.2829C17.8141 13.1749 17.9731 13.0789 18.0271 13.0419C18.1345 12.9024 18.2875 12.8052 18.4593 12.7672C18.6312 12.7291 18.8109 12.7528 18.9671 12.8339Z" fill="url(#paint2_linear_3443_11001)"/>
<defs>
<linearGradient id="paint0_linear_3443_11001" x1="22.373" y1="4.75" x2="2.95589" y2="9.39694" gradientUnits="userSpaceOnUse">
<stop stop-color="#FFA600"/>
<stop offset="0.234764" stop-color="#FF9407"/>
<stop offset="0.538685" stop-color="#FF7D11"/>
<stop offset="0.799781" stop-color="#FF6A19"/>
<stop offset="1" stop-color="#FF5B1F"/>
</linearGradient>
<linearGradient id="paint1_linear_3443_11001" x1="21.373" y1="9.74902" x2="3.21237" y2="11.9431" gradientUnits="userSpaceOnUse">
<stop stop-color="#FFA600"/>
<stop offset="0.234764" stop-color="#FF9407"/>
<stop offset="0.538685" stop-color="#FF7D11"/>
<stop offset="0.799781" stop-color="#FF6A19"/>
<stop offset="1" stop-color="#FF5B1F"/>
</linearGradient>
<linearGradient id="paint2_linear_3443_11001" x1="19.3734" y1="12.7471" x2="5.29743" y2="14.146" gradientUnits="userSpaceOnUse">
<stop stop-color="#FFA600"/>
<stop offset="0.234764" stop-color="#FF9407"/>
<stop offset="0.538685" stop-color="#FF7D11"/>
<stop offset="0.799781" stop-color="#FF6A19"/>
<stop offset="1" stop-color="#FF5B1F"/>
</linearGradient>
</defs>
</svg>
