<svg width="25" height="25" viewBox="0 0 25 25"  xmlns="http://www.w3.org/2000/svg">
<g opacity="0.7">
<g clip-path="url(#clip0_3443_167)">
<path d="M15.4406 16.4368C14.1343 16.4368 13.418 15.7257 13.418 14.4141V9.0625H15.2615V14.1771C15.2615 14.6985 15.3405 14.7775 15.862 14.7775H21.4031C21.9246 14.7775 22.0036 14.6985 22.0036 14.1771V9.0625H23.8472V14.4141C23.8472 15.7257 23.1361 16.4368 21.8298 16.4368H15.4406Z"/>
<path fill-rule="evenodd" clip-rule="evenodd" d="M10.4093 11.0852C10.4093 9.77362 9.69819 9.06253 8.39191 9.06253H2.31349H0.654297V10.7217V16.4369H2.31349L2.31349 10.7217H7.97053C8.48672 10.7217 8.56573 10.8007 8.56573 11.3222C8.56573 11.8384 8.48672 11.9227 7.97053 11.9227H3.46175V12.7497L8.36557 16.4368H10.5884V16.1945L7.1383 13.5766H8.39191C9.69819 13.5766 10.4093 12.8655 10.4093 11.5592V11.0852Z"/>
</g>
</g>
<defs>
<clipPath id="clip0_3443_167">
<rect width="24" height="24" fill="white" transform="translate(0.25 0.75)"/>
</clipPath>
</defs>
</svg>
