<svg width="9" height="9" viewBox="0 0 9 9" fill="none" xmlns="http://www.w3.org/2000/svg">
<path d="M8.07519 0.669983C8.22779 0.822631 8.31352 1.02964 8.31352 1.24548C8.31352 1.46133 8.22779 1.66834 8.07519 1.82098L1.56519 8.33098C1.41099 8.47513 1.20683 8.55374 0.995784 8.55023C0.784733 8.54672 0.583298 8.46137 0.433978 8.31218C0.284657 8.16299 0.199129 7.96163 0.195437 7.75058C0.191745 7.53953 0.270179 7.3353 0.41419 7.18098L6.92419 0.669983C6.99979 0.594272 7.08958 0.534208 7.18842 0.493227C7.28725 0.452246 7.3932 0.431152 7.50019 0.431152C7.60718 0.431152 7.71313 0.452246 7.81197 0.493227C7.9108 0.534208 8.00059 0.594272 8.07619 0.669983M8.04319 7.21398C8.04319 7.50174 7.92888 7.77772 7.7254 7.98119C7.52192 8.18467 7.24595 8.29898 6.95819 8.29898C6.67043 8.29898 6.39446 8.18467 6.19098 7.98119C5.9875 7.77772 5.87319 7.50174 5.87319 7.21398C5.87319 6.92622 5.9875 6.65025 6.19098 6.44677C6.39446 6.24329 6.67043 6.12898 6.95819 6.12898C7.24595 6.12898 7.52192 6.24329 7.7254 6.44677C7.92888 6.65025 8.04319 6.92622 8.04319 7.21398ZM1.53219 2.87298C1.81995 2.87298 2.09592 2.75867 2.2994 2.55519C2.50288 2.35172 2.61719 2.07574 2.61719 1.78798C2.61719 1.50022 2.50288 1.22425 2.2994 1.02077C2.09592 0.817295 1.81995 0.702983 1.53219 0.702983C1.24443 0.702983 0.968456 0.817295 0.764979 1.02077C0.561502 1.22425 0.44719 1.50022 0.44719 1.78798C0.44719 2.07574 0.561502 2.35172 0.764979 2.55519C0.968456 2.75867 1.24443 2.87298 1.53219 2.87298Z" fill="url(#paint0_linear_1181_57188)"/>
<path d="M8.07519 0.669983C8.22779 0.822631 8.31352 1.02964 8.31352 1.24548C8.31352 1.46133 8.22779 1.66834 8.07519 1.82098L1.56519 8.33098C1.41099 8.47513 1.20683 8.55374 0.995784 8.55023C0.784733 8.54672 0.583298 8.46137 0.433978 8.31218C0.284657 8.16299 0.199129 7.96163 0.195437 7.75058C0.191745 7.53953 0.270179 7.3353 0.41419 7.18098L6.92419 0.669983C6.99979 0.594272 7.08958 0.534208 7.18842 0.493227C7.28725 0.452246 7.3932 0.431152 7.50019 0.431152C7.60718 0.431152 7.71313 0.452246 7.81197 0.493227C7.9108 0.534208 8.00059 0.594272 8.07619 0.669983M8.04319 7.21398C8.04319 7.50174 7.92888 7.77772 7.7254 7.98119C7.52192 8.18467 7.24595 8.29898 6.95819 8.29898C6.67043 8.29898 6.39446 8.18467 6.19098 7.98119C5.9875 7.77772 5.87319 7.50174 5.87319 7.21398C5.87319 6.92622 5.9875 6.65025 6.19098 6.44677C6.39446 6.24329 6.67043 6.12898 6.95819 6.12898C7.24595 6.12898 7.52192 6.24329 7.7254 6.44677C7.92888 6.65025 8.04319 6.92622 8.04319 7.21398ZM1.53219 2.87298C1.81995 2.87298 2.09592 2.75867 2.2994 2.55519C2.50288 2.35172 2.61719 2.07574 2.61719 1.78798C2.61719 1.50022 2.50288 1.22425 2.2994 1.02077C2.09592 0.817295 1.81995 0.702983 1.53219 0.702983C1.24443 0.702983 0.968456 0.817295 0.764979 1.02077C0.561502 1.22425 0.44719 1.50022 0.44719 1.78798C0.44719 2.07574 0.561502 2.35172 0.764979 2.55519C0.968456 2.75867 1.24443 2.87298 1.53219 2.87298Z" fill="white" fill-opacity="0.17"/>
<defs>
<linearGradient id="paint0_linear_1181_57188" x1="8.31352" y1="0.431151" x2="-0.207208" y2="0.901677" gradientUnits="userSpaceOnUse">
<stop stop-color="#FFA600"/>
<stop offset="0.234764" stop-color="#FF9407"/>
<stop offset="0.538685" stop-color="#FF7D11"/>
<stop offset="0.799781" stop-color="#FF6A19"/>
<stop offset="1" stop-color="#FF5B1F"/>
</linearGradient>
</defs>
</svg>
