<svg width="49" height="48" viewBox="0 0 49 48" fill="none" xmlns="http://www.w3.org/2000/svg">
<rect x="0.932617" y="-0.0078125" width="48" height="48" rx="24" fill="#FF933B" fill-opacity="0.06"/>
<rect x="1.43262" y="0.492188" width="47" height="47" rx="23.5" stroke="url(#paint0_linear_3478_4779)" stroke-opacity="0.1"/>
<g clip-path="url(#clip0_3478_4779)">
<path d="M33.3303 17.2505L16.2461 17.2505L33.3303 17.2505Z" fill="#FF9407"/>
<path d="M33.3303 17.2505L16.2461 17.2505L33.3303 17.2505Z" fill="#FF933B"/>
<path d="M33.3303 17.2505L16.2461 17.2505" stroke="#FF9407" stroke-width="1.5" stroke-linecap="round"/>
<path d="M33.3303 17.2505L16.2461 17.2505" stroke="#FF933B" stroke-width="1.5" stroke-linecap="round"/>
<g opacity="0.5">
<path d="M35.8604 23.9922H13.7158H35.8604Z" fill="#FF9407"/>
<path d="M35.8604 23.9922H13.7158H35.8604Z" fill="#FF933B"/>
<path d="M35.8604 23.9922H13.7158" stroke="#FF9407" stroke-width="1.5" stroke-linecap="round"/>
<path d="M35.8604 23.9922H13.7158" stroke="#FF933B" stroke-width="1.5" stroke-linecap="round"/>
</g>
<path d="M35.8601 30.4849L15.8545 30.4849" stroke="#FF9407" stroke-width="1.5" stroke-linecap="round"/>
<path d="M35.8601 30.4849L15.8545 30.4849" stroke="#FF933B" stroke-width="1.5" stroke-linecap="round"/>
</g>
<defs>
<linearGradient id="paint0_linear_3478_4779" x1="2.481" y1="-0.00781267" x2="56.3683" y2="11.6204" gradientUnits="userSpaceOnUse">
<stop stop-color="white"/>
<stop offset="0.203125" stop-color="white" stop-opacity="0.48"/>
<stop offset="0.390625" stop-color="white"/>
<stop offset="0.614583" stop-color="white" stop-opacity="0.4"/>
<stop offset="0.796875" stop-color="white"/>
<stop offset="1" stop-color="white" stop-opacity="0.52"/>
</linearGradient>
<clipPath id="clip0_3478_4779">
<rect width="24" height="24" fill="white" transform="translate(12.9326 11.9922)"/>
</clipPath>
</defs>
</svg>
