<svg width="21" height="21" viewBox="0 0 21 21" fill="none" xmlns="http://www.w3.org/2000/svg">
<g opacity="0.5">
<path d="M7.83784 1.70001C7.68036 1.84207 7.5151 1.97528 7.34284 2.09901C7.04484 2.29901 6.70984 2.43701 6.35784 2.50701C6.20484 2.53701 6.04484 2.55001 5.72584 2.57501C4.92484 2.63901 4.52384 2.67101 4.18984 2.78901C3.80794 2.92385 3.46108 3.14248 3.17469 3.42886C2.88831 3.71524 2.66968 4.06211 2.53484 4.44401C2.41684 4.77801 2.38484 5.17901 2.32084 5.98001C2.30994 6.19177 2.28723 6.40277 2.25284 6.61201C2.18284 6.96401 2.04484 7.29901 1.84484 7.59701C1.75784 7.72701 1.65384 7.84901 1.44584 8.09201C0.924844 8.70401 0.663844 9.01001 0.510844 9.33001C0.157844 10.07 0.157844 10.93 0.510844 11.67C0.663844 11.99 0.924844 12.296 1.44584 12.908C1.65384 13.151 1.75784 13.273 1.84484 13.403C2.04484 13.701 2.18284 14.036 2.25284 14.388C2.28284 14.541 2.29584 14.701 2.32084 15.02C2.38484 15.821 2.41684 16.222 2.53484 16.556C2.66968 16.9379 2.88831 17.2848 3.17469 17.5712C3.46108 17.8575 3.80794 18.0762 4.18984 18.211C4.52384 18.329 4.92484 18.361 5.72584 18.425C6.04484 18.45 6.20484 18.463 6.35784 18.493C6.70984 18.563 7.04484 18.702 7.34284 18.901C7.47284 18.988 7.59484 19.092 7.83784 19.3C8.44984 19.821 8.75584 20.082 9.07584 20.235C9.81584 20.588 10.6758 20.588 11.4158 20.235C11.7358 20.082 12.0418 19.821 12.6538 19.3C12.8968 19.092 13.0188 18.988 13.1488 18.901C13.4468 18.701 13.7818 18.563 14.1338 18.493C14.2868 18.463 14.4468 18.45 14.7658 18.425C15.5668 18.361 15.9678 18.329 16.3018 18.211C16.6837 18.0762 17.0306 17.8575 17.317 17.5712C17.6034 17.2848 17.822 16.9379 17.9568 16.556C18.0748 16.222 18.1068 15.821 18.1708 15.02C18.1958 14.701 18.2088 14.541 18.2388 14.388C18.3088 14.036 18.4478 13.701 18.6468 13.403C18.7338 13.273 18.8378 13.151 19.0458 12.908C19.5668 12.296 19.8278 11.99 19.9808 11.67C20.3338 10.93 20.3338 10.07 19.9808 9.33001C19.8278 9.01001 19.5668 8.70401 19.0458 8.09201C18.9035 7.93473 18.7703 7.76947 18.6468 7.59701C18.447 7.29889 18.3084 6.9641 18.2388 6.61201C18.2045 6.40277 18.1818 6.19177 18.1708 5.98001C18.1068 5.17901 18.0748 4.77801 17.9568 4.44401C17.822 4.06211 17.6034 3.71524 17.317 3.42886C17.0306 3.14248 16.6837 2.92385 16.3018 2.78901C15.9678 2.67101 15.5668 2.63901 14.7658 2.57501C14.5541 2.5641 14.3431 2.5414 14.1338 2.50701C13.7818 2.4375 13.447 2.29882 13.1488 2.09901C12.9766 1.97527 12.8113 1.84207 12.6538 1.70001C12.0418 1.17901 11.7358 0.918008 11.4158 0.765008C11.0505 0.590389 10.6508 0.499756 10.2458 0.499756C9.84094 0.499756 9.44116 0.590389 9.07584 0.765008C8.75584 0.918008 8.44984 1.17901 7.83784 1.70001Z" fill="url(#paint0_linear_1181_57187)"/>
<path d="M7.83784 1.70001C7.68036 1.84207 7.5151 1.97528 7.34284 2.09901C7.04484 2.29901 6.70984 2.43701 6.35784 2.50701C6.20484 2.53701 6.04484 2.55001 5.72584 2.57501C4.92484 2.63901 4.52384 2.67101 4.18984 2.78901C3.80794 2.92385 3.46108 3.14248 3.17469 3.42886C2.88831 3.71524 2.66968 4.06211 2.53484 4.44401C2.41684 4.77801 2.38484 5.17901 2.32084 5.98001C2.30994 6.19177 2.28723 6.40277 2.25284 6.61201C2.18284 6.96401 2.04484 7.29901 1.84484 7.59701C1.75784 7.72701 1.65384 7.84901 1.44584 8.09201C0.924844 8.70401 0.663844 9.01001 0.510844 9.33001C0.157844 10.07 0.157844 10.93 0.510844 11.67C0.663844 11.99 0.924844 12.296 1.44584 12.908C1.65384 13.151 1.75784 13.273 1.84484 13.403C2.04484 13.701 2.18284 14.036 2.25284 14.388C2.28284 14.541 2.29584 14.701 2.32084 15.02C2.38484 15.821 2.41684 16.222 2.53484 16.556C2.66968 16.9379 2.88831 17.2848 3.17469 17.5712C3.46108 17.8575 3.80794 18.0762 4.18984 18.211C4.52384 18.329 4.92484 18.361 5.72584 18.425C6.04484 18.45 6.20484 18.463 6.35784 18.493C6.70984 18.563 7.04484 18.702 7.34284 18.901C7.47284 18.988 7.59484 19.092 7.83784 19.3C8.44984 19.821 8.75584 20.082 9.07584 20.235C9.81584 20.588 10.6758 20.588 11.4158 20.235C11.7358 20.082 12.0418 19.821 12.6538 19.3C12.8968 19.092 13.0188 18.988 13.1488 18.901C13.4468 18.701 13.7818 18.563 14.1338 18.493C14.2868 18.463 14.4468 18.45 14.7658 18.425C15.5668 18.361 15.9678 18.329 16.3018 18.211C16.6837 18.0762 17.0306 17.8575 17.317 17.5712C17.6034 17.2848 17.822 16.9379 17.9568 16.556C18.0748 16.222 18.1068 15.821 18.1708 15.02C18.1958 14.701 18.2088 14.541 18.2388 14.388C18.3088 14.036 18.4478 13.701 18.6468 13.403C18.7338 13.273 18.8378 13.151 19.0458 12.908C19.5668 12.296 19.8278 11.99 19.9808 11.67C20.3338 10.93 20.3338 10.07 19.9808 9.33001C19.8278 9.01001 19.5668 8.70401 19.0458 8.09201C18.9035 7.93473 18.7703 7.76947 18.6468 7.59701C18.447 7.29889 18.3084 6.9641 18.2388 6.61201C18.2045 6.40277 18.1818 6.19177 18.1708 5.98001C18.1068 5.17901 18.0748 4.77801 17.9568 4.44401C17.822 4.06211 17.6034 3.71524 17.317 3.42886C17.0306 3.14248 16.6837 2.92385 16.3018 2.78901C15.9678 2.67101 15.5668 2.63901 14.7658 2.57501C14.5541 2.5641 14.3431 2.5414 14.1338 2.50701C13.7818 2.4375 13.447 2.29882 13.1488 2.09901C12.9766 1.97527 12.8113 1.84207 12.6538 1.70001C12.0418 1.17901 11.7358 0.918008 11.4158 0.765008C11.0505 0.590389 10.6508 0.499756 10.2458 0.499756C9.84094 0.499756 9.44116 0.590389 9.07584 0.765008C8.75584 0.918008 8.44984 1.17901 7.83784 1.70001Z" fill="white" fill-opacity="0.17"/>
</g>
<defs>
<linearGradient id="paint0_linear_1181_57187" x1="20.2456" y1="0.499753" x2="-0.745517" y2="1.65902" gradientUnits="userSpaceOnUse">
<stop stop-color="#FFA600"/>
<stop offset="0.234764" stop-color="#FF9407"/>
<stop offset="0.538685" stop-color="#FF7D11"/>
<stop offset="0.799781" stop-color="#FF6A19"/>
<stop offset="1" stop-color="#FF5B1F"/>
</linearGradient>
</defs>
</svg>
