<svg width="20" height="19" viewBox="0 0 20 19" fill="none" xmlns="http://www.w3.org/2000/svg">
<path d="M6.93262 3.92554C6.93262 4.72119 7.24869 5.48425 7.8113 6.04686C8.37391 6.60947 9.13697 6.92554 9.93262 6.92554C10.7283 6.92554 11.4913 6.60947 12.0539 6.04686C12.6165 5.48425 12.9326 4.72119 12.9326 3.92554C12.9326 3.12989 12.6165 2.36683 12.0539 1.80422C11.4913 1.24161 10.7283 0.925537 9.93262 0.925537C9.13697 0.925537 8.37391 1.24161 7.8113 1.80422C7.24869 2.36683 6.93262 3.12989 6.93262 3.92554ZM0.432617 15.9255C0.432617 16.3195 0.510214 16.7096 0.660979 17.0736C0.811743 17.4376 1.03272 17.7683 1.3113 18.0469C1.58987 18.3254 1.92059 18.5464 2.28457 18.6972C2.64854 18.8479 3.03865 18.9255 3.43262 18.9255C3.82658 18.9255 4.21669 18.8479 4.58067 18.6972C4.94464 18.5464 5.27536 18.3254 5.55394 18.0469C5.83251 17.7683 6.05349 17.4376 6.20426 17.0736C6.35502 16.7096 6.43262 16.3195 6.43262 15.9255C6.43262 15.1299 6.11655 14.3668 5.55394 13.8042C4.99133 13.2416 4.22827 12.9255 3.43262 12.9255C2.63697 12.9255 1.87391 13.2416 1.3113 13.8042C0.748688 14.3668 0.432617 15.1299 0.432617 15.9255ZM16.4326 18.9255C15.637 18.9255 14.8739 18.6095 14.3113 18.0469C13.7487 17.4842 13.4326 16.7212 13.4326 15.9255C13.4326 15.1299 13.7487 14.3668 14.3113 13.8042C14.8739 13.2416 15.637 12.9255 16.4326 12.9255C17.2283 12.9255 17.9913 13.2416 18.5539 13.8042C19.1165 14.3668 19.4326 15.1299 19.4326 15.9255C19.4326 16.7212 19.1165 17.4842 18.5539 18.0469C17.9913 18.6095 17.2283 18.9255 16.4326 18.9255Z" fill="url(#paint0_linear_3443_12548)"/>
<path d="M6.93262 3.92554C6.93262 4.72119 7.24869 5.48425 7.8113 6.04686C8.37391 6.60947 9.13697 6.92554 9.93262 6.92554C10.7283 6.92554 11.4913 6.60947 12.0539 6.04686C12.6165 5.48425 12.9326 4.72119 12.9326 3.92554C12.9326 3.12989 12.6165 2.36683 12.0539 1.80422C11.4913 1.24161 10.7283 0.925537 9.93262 0.925537C9.13697 0.925537 8.37391 1.24161 7.8113 1.80422C7.24869 2.36683 6.93262 3.12989 6.93262 3.92554ZM0.432617 15.9255C0.432617 16.3195 0.510214 16.7096 0.660979 17.0736C0.811743 17.4376 1.03272 17.7683 1.3113 18.0469C1.58987 18.3254 1.92059 18.5464 2.28457 18.6972C2.64854 18.8479 3.03865 18.9255 3.43262 18.9255C3.82658 18.9255 4.21669 18.8479 4.58067 18.6972C4.94464 18.5464 5.27536 18.3254 5.55394 18.0469C5.83251 17.7683 6.05349 17.4376 6.20426 17.0736C6.35502 16.7096 6.43262 16.3195 6.43262 15.9255C6.43262 15.1299 6.11655 14.3668 5.55394 13.8042C4.99133 13.2416 4.22827 12.9255 3.43262 12.9255C2.63697 12.9255 1.87391 13.2416 1.3113 13.8042C0.748688 14.3668 0.432617 15.1299 0.432617 15.9255ZM16.4326 18.9255C15.637 18.9255 14.8739 18.6095 14.3113 18.0469C13.7487 17.4842 13.4326 16.7212 13.4326 15.9255C13.4326 15.1299 13.7487 14.3668 14.3113 13.8042C14.8739 13.2416 15.637 12.9255 16.4326 12.9255C17.2283 12.9255 17.9913 13.2416 18.5539 13.8042C19.1165 14.3668 19.4326 15.1299 19.4326 15.9255C19.4326 16.7212 19.1165 17.4842 18.5539 18.0469C17.9913 18.6095 17.2283 18.9255 16.4326 18.9255Z" fill="white" fill-opacity="0.17"/>
<defs>
<linearGradient id="paint0_linear_3443_12548" x1="19.4326" y1="0.925535" x2="-0.502511" y2="2.08768" gradientUnits="userSpaceOnUse">
<stop stop-color="#FFA600"/>
<stop offset="0.234764" stop-color="#FF9407"/>
<stop offset="0.538685" stop-color="#FF7D11"/>
<stop offset="0.799781" stop-color="#FF6A19"/>
<stop offset="1" stop-color="#FF5B1F"/>
</linearGradient>
</defs>
</svg>
