<svg width="21" height="21" viewBox="0 0 21 21" xmlns="http://www.w3.org/2000/svg">
<path opacity="0.5" d="M2.39662 18.6273C3.86262 20.0923 6.21862 20.0923 10.9326 20.0923C15.6466 20.0923 18.0036 20.0923 19.4676 18.6273C20.9326 17.1643 20.9326 14.8063 20.9326 10.0923C20.9326 5.37828 20.9326 3.02129 19.4676 1.55629C18.0046 0.0922852 15.6466 0.0922852 10.9326 0.0922852C6.21862 0.0922852 3.86162 0.0922852 2.39662 1.55629C0.932617 3.02228 0.932617 5.37828 0.932617 10.0923C0.932617 14.8063 0.932617 17.1633 2.39662 18.6273Z"/>
<path d="M8.46344 8.06244C8.32127 7.92996 8.13322 7.85784 7.93892 7.86126C7.74462 7.86469 7.55923 7.9434 7.42182 8.08082C7.28441 8.21823 7.20569 8.40362 7.20227 8.59792C7.19884 8.79222 7.27096 8.98026 7.40344 9.12244L10.4034 12.1224C10.5441 12.2629 10.7347 12.3418 10.9334 12.3418C11.1322 12.3418 11.3228 12.2629 11.4634 12.1224L14.4634 9.12244C14.5371 9.05378 14.5962 8.97098 14.6372 8.87898C14.6782 8.78698 14.7003 8.68766 14.702 8.58696C14.7038 8.48626 14.6853 8.38623 14.6476 8.29284C14.6098 8.19945 14.5537 8.11462 14.4825 8.0434C14.4113 7.97218 14.3264 7.91604 14.233 7.87832C14.1397 7.8406 14.0396 7.82207 13.9389 7.82385C13.8382 7.82562 13.7389 7.84767 13.6469 7.88866C13.5549 7.92965 13.4721 7.98875 13.4034 8.06244L10.9334 10.5324L8.46344 8.06244Z"/>
</svg>
