<svg width="285" height="285" viewBox="0 0 285 285" fill="none" xmlns="http://www.w3.org/2000/svg">
<g filter="url(#filter0_bd_1181_57218)">
<circle cx="73.2461" cy="68.606" r="20" fill="#120F15" fill-opacity="0.7" shape-rendering="crispEdges"/>
<circle cx="73.2461" cy="68.606" r="20" fill="url(#paint0_linear_1181_57218)" fill-opacity="0.02" shape-rendering="crispEdges"/>
<circle cx="73.2461" cy="68.606" r="20" fill="url(#paint1_radial_1181_57218)" fill-opacity="0.02" shape-rendering="crispEdges"/>
<circle cx="73.2461" cy="68.606" r="20" fill="url(#paint2_radial_1181_57218)" fill-opacity="0.03" shape-rendering="crispEdges"/>
<circle cx="73.2461" cy="68.606" r="19.5" stroke="url(#paint3_linear_1181_57218)" stroke-opacity="0.15" shape-rendering="crispEdges"/>
</g>
<g opacity="0.5">
<path d="M70.8378 58.7C70.6804 58.8421 70.5151 58.9753 70.3428 59.099C70.0448 59.299 69.7098 59.437 69.3578 59.507C69.2048 59.537 69.0448 59.55 68.7258 59.575C67.9248 59.639 67.5238 59.671 67.1898 59.789C66.8079 59.9238 66.4611 60.1425 66.1747 60.4289C65.8883 60.7152 65.6697 61.0621 65.5348 61.444C65.4168 61.778 65.3848 62.179 65.3208 62.98C65.3099 63.1918 65.2872 63.4028 65.2528 63.612C65.1828 63.964 65.0448 64.299 64.8448 64.597C64.7578 64.727 64.6538 64.849 64.4458 65.092C63.9248 65.704 63.6638 66.01 63.5108 66.33C63.1578 67.07 63.1578 67.93 63.5108 68.67C63.6638 68.99 63.9248 69.296 64.4458 69.908C64.6538 70.151 64.7578 70.273 64.8448 70.403C65.0448 70.701 65.1828 71.036 65.2528 71.388C65.2828 71.541 65.2958 71.701 65.3208 72.02C65.3848 72.821 65.4168 73.222 65.5348 73.556C65.6697 73.9379 65.8883 74.2848 66.1747 74.5712C66.4611 74.8575 66.8079 75.0762 67.1898 75.211C67.5238 75.329 67.9248 75.361 68.7258 75.425C69.0448 75.45 69.2048 75.463 69.3578 75.493C69.7098 75.563 70.0448 75.702 70.3428 75.901C70.4728 75.988 70.5948 76.092 70.8378 76.3C71.4498 76.821 71.7558 77.082 72.0758 77.235C72.8158 77.588 73.6758 77.588 74.4158 77.235C74.7358 77.082 75.0418 76.821 75.6538 76.3C75.8968 76.092 76.0188 75.988 76.1488 75.901C76.4468 75.701 76.7818 75.563 77.1338 75.493C77.2868 75.463 77.4468 75.45 77.7658 75.425C78.5668 75.361 78.9678 75.329 79.3018 75.211C79.6837 75.0762 80.0306 74.8575 80.317 74.5712C80.6034 74.2848 80.822 73.9379 80.9568 73.556C81.0748 73.222 81.1068 72.821 81.1708 72.02C81.1958 71.701 81.2088 71.541 81.2388 71.388C81.3088 71.036 81.4478 70.701 81.6468 70.403C81.7338 70.273 81.8378 70.151 82.0458 69.908C82.5668 69.296 82.8278 68.99 82.9808 68.67C83.3338 67.93 83.3338 67.07 82.9808 66.33C82.8278 66.01 82.5668 65.704 82.0458 65.092C81.9035 64.9347 81.7703 64.7695 81.6468 64.597C81.447 64.2989 81.3084 63.9641 81.2388 63.612C81.2045 63.4028 81.1818 63.1918 81.1708 62.98C81.1068 62.179 81.0748 61.778 80.9568 61.444C80.822 61.0621 80.6034 60.7152 80.317 60.4289C80.0306 60.1425 79.6837 59.9238 79.3018 59.789C78.9678 59.671 78.5668 59.639 77.7658 59.575C77.5541 59.5641 77.3431 59.5414 77.1338 59.507C76.7818 59.4375 76.447 59.2988 76.1488 59.099C75.9766 58.9753 75.8113 58.8421 75.6538 58.7C75.0418 58.179 74.7358 57.918 74.4158 57.765C74.0505 57.5904 73.6508 57.4998 73.2458 57.4998C72.8409 57.4998 72.4412 57.5904 72.0758 57.765C71.7558 57.918 71.4498 58.179 70.8378 58.7Z" fill="url(#paint4_linear_1181_57218)"/>
<path d="M70.8378 58.7C70.6804 58.8421 70.5151 58.9753 70.3428 59.099C70.0448 59.299 69.7098 59.437 69.3578 59.507C69.2048 59.537 69.0448 59.55 68.7258 59.575C67.9248 59.639 67.5238 59.671 67.1898 59.789C66.8079 59.9238 66.4611 60.1425 66.1747 60.4289C65.8883 60.7152 65.6697 61.0621 65.5348 61.444C65.4168 61.778 65.3848 62.179 65.3208 62.98C65.3099 63.1918 65.2872 63.4028 65.2528 63.612C65.1828 63.964 65.0448 64.299 64.8448 64.597C64.7578 64.727 64.6538 64.849 64.4458 65.092C63.9248 65.704 63.6638 66.01 63.5108 66.33C63.1578 67.07 63.1578 67.93 63.5108 68.67C63.6638 68.99 63.9248 69.296 64.4458 69.908C64.6538 70.151 64.7578 70.273 64.8448 70.403C65.0448 70.701 65.1828 71.036 65.2528 71.388C65.2828 71.541 65.2958 71.701 65.3208 72.02C65.3848 72.821 65.4168 73.222 65.5348 73.556C65.6697 73.9379 65.8883 74.2848 66.1747 74.5712C66.4611 74.8575 66.8079 75.0762 67.1898 75.211C67.5238 75.329 67.9248 75.361 68.7258 75.425C69.0448 75.45 69.2048 75.463 69.3578 75.493C69.7098 75.563 70.0448 75.702 70.3428 75.901C70.4728 75.988 70.5948 76.092 70.8378 76.3C71.4498 76.821 71.7558 77.082 72.0758 77.235C72.8158 77.588 73.6758 77.588 74.4158 77.235C74.7358 77.082 75.0418 76.821 75.6538 76.3C75.8968 76.092 76.0188 75.988 76.1488 75.901C76.4468 75.701 76.7818 75.563 77.1338 75.493C77.2868 75.463 77.4468 75.45 77.7658 75.425C78.5668 75.361 78.9678 75.329 79.3018 75.211C79.6837 75.0762 80.0306 74.8575 80.317 74.5712C80.6034 74.2848 80.822 73.9379 80.9568 73.556C81.0748 73.222 81.1068 72.821 81.1708 72.02C81.1958 71.701 81.2088 71.541 81.2388 71.388C81.3088 71.036 81.4478 70.701 81.6468 70.403C81.7338 70.273 81.8378 70.151 82.0458 69.908C82.5668 69.296 82.8278 68.99 82.9808 68.67C83.3338 67.93 83.3338 67.07 82.9808 66.33C82.8278 66.01 82.5668 65.704 82.0458 65.092C81.9035 64.9347 81.7703 64.7695 81.6468 64.597C81.447 64.2989 81.3084 63.9641 81.2388 63.612C81.2045 63.4028 81.1818 63.1918 81.1708 62.98C81.1068 62.179 81.0748 61.778 80.9568 61.444C80.822 61.0621 80.6034 60.7152 80.317 60.4289C80.0306 60.1425 79.6837 59.9238 79.3018 59.789C78.9678 59.671 78.5668 59.639 77.7658 59.575C77.5541 59.5641 77.3431 59.5414 77.1338 59.507C76.7818 59.4375 76.447 59.2988 76.1488 59.099C75.9766 58.9753 75.8113 58.8421 75.6538 58.7C75.0418 58.179 74.7358 57.918 74.4158 57.765C74.0505 57.5904 73.6508 57.4998 73.2458 57.4998C72.8409 57.4998 72.4412 57.5904 72.0758 57.765C71.7558 57.918 71.4498 58.179 70.8378 58.7Z" fill="white" fill-opacity="0.17"/>
</g>
<path d="M77.0752 63.67C77.2278 63.8226 77.3135 64.0296 77.3135 64.2455C77.3135 64.4613 77.2278 64.6683 77.0752 64.821L70.5652 71.331C70.411 71.4751 70.2068 71.5537 69.9958 71.5502C69.7847 71.5467 69.5833 71.4614 69.434 71.3122C69.2847 71.163 69.1991 70.9616 69.1954 70.7506C69.1917 70.5395 69.2702 70.3353 69.4142 70.181L75.9242 63.67C75.9998 63.5943 76.0896 63.5342 76.1884 63.4932C76.2873 63.4522 76.3932 63.4312 76.5002 63.4312C76.6072 63.4312 76.7131 63.4522 76.812 63.4932C76.9108 63.5342 77.0006 63.5943 77.0762 63.67M77.0432 70.214C77.0432 70.5017 76.9289 70.7777 76.7254 70.9812C76.5219 71.1847 76.246 71.299 75.9582 71.299C75.6704 71.299 75.3945 71.1847 75.191 70.9812C74.9875 70.7777 74.8732 70.5017 74.8732 70.214C74.8732 69.9262 74.9875 69.6502 75.191 69.4468C75.3945 69.2433 75.6704 69.129 75.9582 69.129C76.246 69.129 76.5219 69.2433 76.7254 69.4468C76.9289 69.6502 77.0432 69.9262 77.0432 70.214ZM70.5322 65.873C70.8199 65.873 71.0959 65.7587 71.2994 65.5552C71.5029 65.3517 71.6172 65.0757 71.6172 64.788C71.6172 64.5002 71.5029 64.2242 71.2994 64.0208C71.0959 63.8173 70.8199 63.703 70.5322 63.703C70.2444 63.703 69.9685 63.8173 69.765 64.0208C69.5615 64.2242 69.4472 64.5002 69.4472 64.788C69.4472 65.0757 69.5615 65.3517 69.765 65.5552C69.9685 65.7587 70.2444 65.873 70.5322 65.873Z" fill="url(#paint5_linear_1181_57218)"/>
<path d="M77.0752 63.67C77.2278 63.8226 77.3135 64.0296 77.3135 64.2455C77.3135 64.4613 77.2278 64.6683 77.0752 64.821L70.5652 71.331C70.411 71.4751 70.2068 71.5537 69.9958 71.5502C69.7847 71.5467 69.5833 71.4614 69.434 71.3122C69.2847 71.163 69.1991 70.9616 69.1954 70.7506C69.1917 70.5395 69.2702 70.3353 69.4142 70.181L75.9242 63.67C75.9998 63.5943 76.0896 63.5342 76.1884 63.4932C76.2873 63.4522 76.3932 63.4312 76.5002 63.4312C76.6072 63.4312 76.7131 63.4522 76.812 63.4932C76.9108 63.5342 77.0006 63.5943 77.0762 63.67M77.0432 70.214C77.0432 70.5017 76.9289 70.7777 76.7254 70.9812C76.5219 71.1847 76.246 71.299 75.9582 71.299C75.6704 71.299 75.3945 71.1847 75.191 70.9812C74.9875 70.7777 74.8732 70.5017 74.8732 70.214C74.8732 69.9262 74.9875 69.6502 75.191 69.4468C75.3945 69.2433 75.6704 69.129 75.9582 69.129C76.246 69.129 76.5219 69.2433 76.7254 69.4468C76.9289 69.6502 77.0432 69.9262 77.0432 70.214ZM70.5322 65.873C70.8199 65.873 71.0959 65.7587 71.2994 65.5552C71.5029 65.3517 71.6172 65.0757 71.6172 64.788C71.6172 64.5002 71.5029 64.2242 71.2994 64.0208C71.0959 63.8173 70.8199 63.703 70.5322 63.703C70.2444 63.703 69.9685 63.8173 69.765 64.0208C69.5615 64.2242 69.4472 64.5002 69.4472 64.788C69.4472 65.0757 69.5615 65.3517 69.765 65.5552C69.9685 65.7587 70.2444 65.873 70.5322 65.873Z" fill="white" fill-opacity="0.17"/>
<defs>
<filter id="filter0_bd_1181_57218" x="0.246094" y="0.605957" width="184" height="184" filterUnits="userSpaceOnUse" color-interpolation-filters="sRGB">
<feFlood flood-opacity="0" result="BackgroundImageFix"/>
<feGaussianBlur in="BackgroundImageFix" stdDeviation="7"/>
<feComposite in2="SourceAlpha" operator="in" result="effect1_backgroundBlur_1181_57218"/>
<feColorMatrix in="SourceAlpha" type="matrix" values="0 0 0 0 0 0 0 0 0 0 0 0 0 0 0 0 0 0 127 0" result="hardAlpha"/>
<feOffset dx="19" dy="24"/>
<feGaussianBlur stdDeviation="36"/>
<feComposite in2="hardAlpha" operator="out"/>
<feColorMatrix type="matrix" values="0 0 0 0 0.0179595 0 0 0 0 0.00757102 0 0 0 0 0.028348 0 0 0 0.4 0"/>
<feBlend mode="normal" in2="effect1_backgroundBlur_1181_57218" result="effect2_dropShadow_1181_57218"/>
<feBlend mode="normal" in="SourceGraphic" in2="effect2_dropShadow_1181_57218" result="shape"/>
</filter>
<linearGradient id="paint0_linear_1181_57218" x1="73.2461" y1="48.606" x2="73.2461" y2="88.606" gradientUnits="userSpaceOnUse">
<stop stop-color="white"/>
<stop offset="1" stop-color="white" stop-opacity="0"/>
</linearGradient>
<radialGradient id="paint1_radial_1181_57218" cx="0" cy="0" r="1" gradientUnits="userSpaceOnUse" gradientTransform="translate(59.0095 48.606) rotate(49.3514) scale(28.9855 70.6063)">
<stop stop-color="#FE8C00"/>
<stop offset="1" stop-color="#F83600" stop-opacity="0"/>
</radialGradient>
<radialGradient id="paint2_radial_1181_57218" cx="0" cy="0" r="1" gradientUnits="userSpaceOnUse" gradientTransform="translate(59.0095 48.606) rotate(49.3514) scale(28.9855 70.6063)">
<stop stop-color="#F83600"/>
<stop offset="1" stop-color="#F83600" stop-opacity="0"/>
</radialGradient>
<linearGradient id="paint3_linear_1181_57218" x1="54.5364" y1="48.606" x2="99.4425" y2="58.2961" gradientUnits="userSpaceOnUse">
<stop stop-color="white"/>
<stop offset="0.203125" stop-color="white" stop-opacity="0.48"/>
<stop offset="0.390625" stop-color="white"/>
<stop offset="0.614583" stop-color="white" stop-opacity="0.4"/>
<stop offset="0.796875" stop-color="white"/>
<stop offset="1" stop-color="white" stop-opacity="0.52"/>
</linearGradient>
<linearGradient id="paint4_linear_1181_57218" x1="83.2456" y1="57.4998" x2="62.2545" y2="58.659" gradientUnits="userSpaceOnUse">
<stop stop-color="#FFA600"/>
<stop offset="0.234764" stop-color="#FF9407"/>
<stop offset="0.538685" stop-color="#FF7D11"/>
<stop offset="0.799781" stop-color="#FF6A19"/>
<stop offset="1" stop-color="#FF5B1F"/>
</linearGradient>
<linearGradient id="paint5_linear_1181_57218" x1="77.3135" y1="63.4312" x2="68.7928" y2="63.9017" gradientUnits="userSpaceOnUse">
<stop stop-color="#FFA600"/>
<stop offset="0.234764" stop-color="#FF9407"/>
<stop offset="0.538685" stop-color="#FF7D11"/>
<stop offset="0.799781" stop-color="#FF6A19"/>
<stop offset="1" stop-color="#FF5B1F"/>
</linearGradient>
</defs>
</svg>
