<svg width="33" height="32" viewBox="0 0 33 32" fill="none" xmlns="http://www.w3.org/2000/svg">
<path fill-rule="evenodd" clip-rule="evenodd" d="M20.1994 21.828L27.9954 14.0547C29.1181 12.936 29.6794 12.376 29.9741 11.6654C30.2701 10.952 30.2701 10.1614 30.2701 8.57869V7.82269C30.2701 5.38803 30.2701 4.17069 29.5114 3.41469C28.7528 2.65869 27.5328 2.65869 25.0914 2.65869H24.3314C22.7448 2.65869 21.9514 2.65869 21.2381 2.95336C20.5234 3.24802 19.9621 3.80802 18.8381 4.92669L11.0434 12.7C9.73143 14.0067 8.9181 14.8187 8.60343 15.6014C8.50531 15.839 8.45459 16.0936 8.4541 16.3507C8.4541 17.42 9.31677 18.2814 11.0434 20.0027L11.2754 20.2334L13.9928 17.4747C14.085 17.3811 14.1947 17.3066 14.3157 17.2554C14.4366 17.2042 14.5665 17.1774 14.6979 17.1764C14.8293 17.1754 14.9595 17.2003 15.0813 17.2496C15.203 17.299 15.3138 17.3718 15.4074 17.464C15.501 17.5562 15.5755 17.6659 15.6267 17.7869C15.6779 17.9079 15.7048 18.0378 15.7058 18.1691C15.7067 18.3005 15.6819 18.4308 15.6325 18.5525C15.5831 18.6743 15.5103 18.7851 15.4181 18.8787L12.6914 21.6454L12.8741 21.828C14.6008 23.548 15.4648 24.4094 16.5368 24.4094C16.7741 24.4094 17.0008 24.368 17.2288 24.284C18.0328 23.988 18.8541 23.1694 20.1994 21.828ZM23.8621 12.7C23.3758 13.1846 22.7173 13.4566 22.0308 13.4566C21.3443 13.4566 20.6858 13.1846 20.1994 12.7C19.9591 12.4607 19.7684 12.1762 19.6382 11.863C19.5081 11.5497 19.4411 11.2139 19.4411 10.8747C19.4411 10.5355 19.5081 10.1996 19.6382 9.8864C19.7684 9.57316 19.9591 9.2887 20.1994 9.04936C20.6858 8.56482 21.3443 8.29276 22.0308 8.29276C22.7173 8.29276 23.3758 8.56482 23.8621 9.04936C24.1025 9.2887 24.2932 9.57316 24.4233 9.8864C24.5534 10.1996 24.6204 10.5355 24.6204 10.8747C24.6204 11.2139 24.5534 11.5497 24.4233 11.863C24.2932 12.1762 24.1025 12.4607 23.8621 12.7Z" fill="#06020B"/>
<path opacity="0.5" d="M12.978 7.94314L9.58732 11.3258C8.96466 11.9471 8.39266 12.5165 7.94066 13.0325C7.63519 13.373 7.35909 13.7387 7.11532 14.1258L7.08332 14.0925L6.95666 13.9671C6.36683 13.3954 5.67362 12.9411 4.91399 12.6285L4.74999 12.5618L4.24466 12.3618C4.08728 12.2998 3.94784 12.1995 3.83891 12.0701C3.72998 11.9407 3.655 11.7861 3.62073 11.6205C3.58646 11.4548 3.59399 11.2833 3.64262 11.1212C3.69126 10.9592 3.77948 10.8119 3.89932 10.6925C5.39266 9.20181 7.18599 7.41381 8.05266 7.05514C8.80503 6.73943 9.629 6.6339 10.4367 6.74981C11.1647 6.85781 11.8527 7.23248 12.978 7.94314ZM18.7687 25.7431C19.042 26.0205 19.222 26.2165 19.3873 26.4258C19.6033 26.7018 19.7967 26.9951 19.966 27.3031C20.1553 27.6498 20.3033 28.0191 20.598 28.7591C20.6561 28.8989 20.7477 29.0221 20.8647 29.118C20.9817 29.2139 21.1206 29.2795 21.269 29.3091C21.4174 29.3386 21.5707 29.3311 21.7156 29.2873C21.8604 29.2435 21.9922 29.1646 22.0993 29.0578L22.2113 28.9471C23.7047 27.4578 25.498 25.6698 25.858 24.8071C26.1742 24.0577 26.2798 23.2362 26.1633 22.4311C26.0553 21.7045 25.6807 21.0178 24.9673 19.8951L21.5647 23.2871C20.9273 23.9231 20.3433 24.5058 19.814 24.9618C19.498 25.2365 19.1513 25.5085 18.7687 25.7431Z" fill="#06020B"/>
</svg>
