<svg width="18" height="16" viewBox="0 0 18 16" fill="none" xmlns="http://www.w3.org/2000/svg">
<g opacity="0.5">
<path d="M4.13762 1.48766C4.28303 1.35499 4.37046 1.17048 4.38105 0.973931C4.39164 0.777381 4.32453 0.584546 4.19421 0.437031C4.06389 0.289517 3.8808 0.199148 3.68444 0.185421C3.48808 0.171694 3.2942 0.23571 3.14462 0.363657C2.2127 1.18393 1.46645 2.19354 0.955677 3.3251C0.444904 4.45666 0.181356 5.68416 0.182622 6.92566C0.182622 7.12457 0.261639 7.31533 0.402292 7.45599C0.542944 7.59664 0.733709 7.67566 0.932622 7.67566C1.13153 7.67566 1.3223 7.59664 1.46295 7.45599C1.6036 7.31533 1.68262 7.12457 1.68262 6.92566C1.68132 5.89674 1.89965 4.87939 2.32301 3.9416C2.74638 3.00382 3.36503 2.1672 4.13762 1.48766ZM14.7206 0.363657C14.571 0.23571 14.3772 0.171694 14.1808 0.185421C13.9844 0.199148 13.8014 0.289517 13.671 0.437031C13.5407 0.584546 13.4736 0.777381 13.4842 0.973931C13.4948 1.17048 13.5822 1.35499 13.7276 1.48766C14.5002 2.1672 15.1189 3.00382 15.5422 3.9416C15.9656 4.87939 16.1839 5.89674 16.1826 6.92566C16.1826 7.12457 16.2616 7.31533 16.4023 7.45599C16.5429 7.59664 16.7337 7.67566 16.9326 7.67566C17.1315 7.67566 17.3223 7.59664 17.463 7.45599C17.6036 7.31533 17.6826 7.12457 17.6826 6.92566C17.6839 5.68416 17.4203 4.45666 16.9096 3.3251C16.3988 2.19354 15.6525 1.18393 14.7206 0.363657ZM7.11962 13.9477C7.02326 13.9199 6.9223 13.9117 6.82273 13.9237C6.72315 13.9356 6.62698 13.9674 6.5399 14.0171C6.45283 14.0669 6.37661 14.1336 6.31577 14.2133C6.25492 14.293 6.21069 14.3841 6.18567 14.4813C6.16066 14.5784 6.15537 14.6795 6.17013 14.7787C6.18489 14.8779 6.2194 14.9731 6.2716 15.0588C6.32381 15.1444 6.39266 15.2187 6.47408 15.2772C6.5555 15.3358 6.64783 15.3774 6.74562 15.3997C8.18024 15.7689 9.68501 15.7689 11.1196 15.3997C11.2174 15.3774 11.3097 15.3358 11.3912 15.2772C11.4726 15.2187 11.5414 15.1444 11.5936 15.0588C11.6458 14.9731 11.6804 14.8779 11.6951 14.7787C11.7099 14.6795 11.7046 14.5784 11.6796 14.4813C11.6546 14.3841 11.6103 14.293 11.5495 14.2133C11.4886 14.1336 11.4124 14.0669 11.3253 14.0171C11.2383 13.9674 11.1421 13.9356 11.0425 13.9237C10.9429 13.9117 10.842 13.9199 10.7456 13.9477C10.1533 14.0996 9.54414 14.1762 8.93262 14.1757C8.32113 14.1758 7.71204 14.0992 7.11962 13.9477Z" fill="url(#paint0_linear_3443_12547)"/>
<path d="M4.13762 1.48766C4.28303 1.35499 4.37046 1.17048 4.38105 0.973931C4.39164 0.777381 4.32453 0.584546 4.19421 0.437031C4.06389 0.289517 3.8808 0.199148 3.68444 0.185421C3.48808 0.171694 3.2942 0.23571 3.14462 0.363657C2.2127 1.18393 1.46645 2.19354 0.955677 3.3251C0.444904 4.45666 0.181356 5.68416 0.182622 6.92566C0.182622 7.12457 0.261639 7.31533 0.402292 7.45599C0.542944 7.59664 0.733709 7.67566 0.932622 7.67566C1.13153 7.67566 1.3223 7.59664 1.46295 7.45599C1.6036 7.31533 1.68262 7.12457 1.68262 6.92566C1.68132 5.89674 1.89965 4.87939 2.32301 3.9416C2.74638 3.00382 3.36503 2.1672 4.13762 1.48766ZM14.7206 0.363657C14.571 0.23571 14.3772 0.171694 14.1808 0.185421C13.9844 0.199148 13.8014 0.289517 13.671 0.437031C13.5407 0.584546 13.4736 0.777381 13.4842 0.973931C13.4948 1.17048 13.5822 1.35499 13.7276 1.48766C14.5002 2.1672 15.1189 3.00382 15.5422 3.9416C15.9656 4.87939 16.1839 5.89674 16.1826 6.92566C16.1826 7.12457 16.2616 7.31533 16.4023 7.45599C16.5429 7.59664 16.7337 7.67566 16.9326 7.67566C17.1315 7.67566 17.3223 7.59664 17.463 7.45599C17.6036 7.31533 17.6826 7.12457 17.6826 6.92566C17.6839 5.68416 17.4203 4.45666 16.9096 3.3251C16.3988 2.19354 15.6525 1.18393 14.7206 0.363657ZM7.11962 13.9477C7.02326 13.9199 6.9223 13.9117 6.82273 13.9237C6.72315 13.9356 6.62698 13.9674 6.5399 14.0171C6.45283 14.0669 6.37661 14.1336 6.31577 14.2133C6.25492 14.293 6.21069 14.3841 6.18567 14.4813C6.16066 14.5784 6.15537 14.6795 6.17013 14.7787C6.18489 14.8779 6.2194 14.9731 6.2716 15.0588C6.32381 15.1444 6.39266 15.2187 6.47408 15.2772C6.5555 15.3358 6.64783 15.3774 6.74562 15.3997C8.18024 15.7689 9.68501 15.7689 11.1196 15.3997C11.2174 15.3774 11.3097 15.3358 11.3912 15.2772C11.4726 15.2187 11.5414 15.1444 11.5936 15.0588C11.6458 14.9731 11.6804 14.8779 11.6951 14.7787C11.7099 14.6795 11.7046 14.5784 11.6796 14.4813C11.6546 14.3841 11.6103 14.293 11.5495 14.2133C11.4886 14.1336 11.4124 14.0669 11.3253 14.0171C11.2383 13.9674 11.1421 13.9356 11.0425 13.9237C10.9429 13.9117 10.842 13.9199 10.7456 13.9477C10.1533 14.0996 9.54414 14.1762 8.93262 14.1757C8.32113 14.1758 7.71204 14.0992 7.11962 13.9477Z" fill="white" fill-opacity="0.17"/>
</g>
<defs>
<linearGradient id="paint0_linear_3443_12547" x1="17.6826" y1="0.183592" x2="-0.669667" y2="1.32845" gradientUnits="userSpaceOnUse">
<stop stop-color="#FFA600"/>
<stop offset="0.234764" stop-color="#FF9407"/>
<stop offset="0.538685" stop-color="#FF7D11"/>
<stop offset="0.799781" stop-color="#FF6A19"/>
<stop offset="1" stop-color="#FF5B1F"/>
</linearGradient>
</defs>
</svg>
