<svg width="16" height="16" viewBox="0 0 16 16" xmlns="http://www.w3.org/2000/svg">
<g opacity="0.6">
<path fill-rule="evenodd" clip-rule="evenodd" d="M8.99988 2C8.99988 1.72386 9.22374 1.5 9.49988 1.5H13.9999C14.276 1.5 14.4999 1.72386 14.4999 2V6.5C14.4999 6.77614 14.276 7 13.9999 7C13.7237 7 13.4999 6.77614 13.4999 6.5V3.20711L8.85343 7.85355C8.65817 8.04882 8.34159 8.04882 8.14633 7.85355C7.95106 7.65829 7.95106 7.34171 8.14633 7.14645L12.7928 2.5H9.49988C9.22374 2.5 8.99988 2.27614 8.99988 2ZM7.16652 1.99924C7.16952 2.27536 6.9481 2.50164 6.67198 2.50464C5.6898 2.51531 4.96792 2.55229 4.40921 2.66653C3.86416 2.77798 3.50764 2.95667 3.2321 3.23222C2.90117 3.56315 2.70764 4.01336 2.60525 4.77495C2.50094 5.55089 2.49988 6.57187 2.49988 8C2.49988 9.42847 2.50094 10.4494 2.60525 11.2253C2.70763 11.9868 2.90114 12.4368 3.2321 12.7678C3.56303 13.0987 4.01324 13.2922 4.77483 13.3946C5.55077 13.4989 6.57175 13.5 7.99988 13.5C9.42835 13.5 10.4493 13.4989 11.2252 13.3946C11.9866 13.2922 12.4367 13.0987 12.7677 12.7678C13.3102 12.2252 13.4661 11.3869 13.4933 9.4915C13.4972 9.21539 13.7243 8.99476 14.0004 8.99872C14.2765 9.00268 14.4971 9.22972 14.4932 9.50583C14.467 11.3318 14.3469 12.6028 13.4748 13.4749C12.9271 14.0226 12.2308 14.2684 11.3584 14.3857C10.5082 14.5 9.42 14.5 8.03787 14.5H7.96193C6.58011 14.5 5.49188 14.5 4.64159 14.3857C3.76918 14.2684 3.07273 14.0226 2.52499 13.4749C1.97728 12.9272 1.73146 12.2309 1.61417 11.3585C1.49986 10.5083 1.49987 9.42011 1.49988 8.03797V7.96205C1.49987 6.58022 1.49986 5.492 1.61417 4.64172C1.73145 3.7693 1.97726 3.07285 2.52499 2.52511C2.97745 2.07266 3.53293 1.82502 4.20888 1.6868C4.87117 1.55138 5.67929 1.51536 6.66111 1.5047C6.93724 1.5017 7.16352 1.72311 7.16652 1.99924Z"/>
</g>
</svg>
